<?xml version="1.0" standalone="no"?>
<!DOCTYPE svg PUBLIC "-//W3C//DTD SVG 20010904//EN"
 "http://www.w3.org/TR/2001/REC-SVG-20010904/DTD/svg10.dtd">
<svg version="1.0" xmlns="http://www.w3.org/2000/svg"
 width="1370.000000pt" height="1370.000000pt" viewBox="0 0 1370.000000 1370.000000"
 preserveAspectRatio="xMidYMid meet">

<g transform="translate(0.000000,1370.000000) scale(0.100000,-0.100000)"
fill="#000000" stroke="none">
<path d="M6400 13548 c-638 -40 -1165 -150 -1922 -400 l-186 -62 81 -86 c92
-96 173 -201 237 -305 100 -162 201 -416 231 -578 7 -37 17 -67 22 -67 5 0 34
18 65 39 226 155 733 405 992 489 160 52 391 108 500 122 132 17 682 24 856
11 385 -28 721 -101 1094 -236 406 -147 629 -252 955 -448 231 -139 439 -279
575 -386 157 -124 623 -609 766 -796 20 -27 58 -77 84 -110 52 -69 108 -152
139 -210 12 -22 36 -62 53 -90 50 -82 158 -293 158 -309 0 -9 4 -16 8 -16 12
0 56 -113 93 -235 105 -348 131 -536 109 -800 -20 -258 -101 -565 -178 -677
-16 -24 -38 -58 -48 -77 -40 -72 -44 -77 -153 -212 -63 -78 -226 -229 -247
-229 -7 0 -14 -6 -17 -14 -5 -13 -129 -76 -149 -76 -5 0 0 13 11 29 12 16 21
32 21 35 0 4 23 40 50 80 28 40 50 76 50 80 0 4 16 32 36 63 19 30 46 81 60
111 14 31 28 59 32 62 15 11 72 140 97 220 15 47 33 103 41 125 63 181 64 817
1 1030 -8 28 -24 86 -36 130 -24 88 -112 271 -199 410 -59 95 -111 165 -122
165 -3 0 -26 -30 -50 -66 -24 -37 -49 -72 -55 -78 -7 -6 -17 -21 -23 -33 -7
-12 -29 -42 -50 -66 -20 -25 -59 -73 -87 -108 -27 -35 -95 -113 -150 -174 -55
-60 -118 -130 -139 -155 -124 -140 -437 -455 -536 -537 -63 -53 -132 -112
-152 -132 -50 -49 -131 -108 -268 -196 -63 -41 -128 -83 -145 -95 -146 -101
-360 -215 -680 -361 -49 -22 -117 -53 -150 -68 -33 -16 -87 -38 -120 -50 -33
-13 -71 -29 -85 -36 -14 -7 -79 -29 -145 -50 -66 -20 -129 -40 -140 -45 -30
-14 -226 -61 -237 -58 -5 2 29 53 75 113 46 61 96 131 111 158 30 51 43 61 94
71 19 3 48 12 65 20 18 8 75 26 127 40 52 15 118 37 145 51 28 13 84 36 125
50 86 31 471 226 605 307 50 30 112 67 139 84 27 16 74 49 105 75 31 25 77 59
103 77 25 18 53 38 61 46 8 8 27 23 44 33 43 27 124 96 232 199 53 50 110 104
128 120 17 16 77 81 134 144 56 63 138 156 183 205 45 50 103 119 129 155 26
36 76 104 111 152 119 162 157 223 247 395 33 63 46 98 42 114 -8 31 -388 409
-411 409 -5 0 -34 -33 -64 -72 -51 -67 -76 -97 -208 -243 -25 -27 -62 -70 -82
-95 -20 -25 -64 -74 -99 -111 -250 -256 -296 -303 -329 -329 -21 -17 -56 -47
-77 -66 -110 -104 -132 -124 -183 -166 -117 -98 -400 -307 -465 -344 -11 -6
-54 -31 -95 -54 -105 -60 -320 -172 -490 -255 -68 -33 -261 -97 -276 -91 -10
4 -3 23 27 73 21 37 51 105 64 150 l25 82 173 87 c219 110 277 142 412 227
166 106 296 201 440 320 69 58 514 502 612 612 44 50 109 122 144 161 59 65
211 271 237 321 15 28 9 43 -31 70 -17 12 -84 58 -147 102 -63 44 -144 99
-180 121 -36 23 -80 50 -98 62 -43 27 -58 19 -116 -56 -25 -32 -68 -84 -95
-115 -28 -31 -74 -83 -104 -116 -160 -181 -571 -536 -711 -614 -21 -12 -45
-28 -52 -36 -24 -24 -328 -185 -349 -185 -3 0 -34 -13 -68 -29 -113 -53 -294
-103 -389 -109 -107 -6 -113 5 -25 49 150 76 309 174 511 316 77 54 153 105
170 115 17 9 40 25 51 35 11 10 38 30 60 43 39 23 139 102 200 158 17 15 64
55 105 88 71 58 139 127 340 339 86 91 200 236 200 254 0 5 -9 12 -19 16 -11
3 -37 18 -58 32 -21 14 -78 41 -128 60 -49 19 -97 41 -105 48 -8 7 -62 32
-120 54 -58 23 -121 50 -140 60 -34 19 -278 90 -395 116 -155 34 -405 44 -625
25 -201 -18 -580 -98 -709 -149 -61 -25 -358 -177 -381 -196 -8 -7 -46 -29
-85 -51 -63 -34 -206 -134 -245 -171 -8 -8 -44 -35 -80 -61 -36 -26 -69 -52
-75 -58 -5 -6 -27 -23 -48 -36 -20 -14 -56 -42 -80 -63 -280 -254 -322 -295
-477 -472 -103 -116 -207 -254 -259 -343 -17 -30 -59 -100 -93 -155 -85 -138
-143 -240 -174 -305 -14 -30 -45 -95 -69 -145 -23 -49 -50 -115 -60 -145 -10
-30 -27 -75 -38 -100 -47 -105 -124 -406 -143 -555 -28 -231 -14 -621 32 -852
7 -39 18 -104 24 -145 6 -40 22 -118 36 -173 28 -111 131 -419 150 -450 7 -11
23 -47 35 -80 26 -72 139 -285 151 -285 4 0 8 -6 8 -13 0 -7 8 -22 18 -33 10
-10 35 -44 55 -74 20 -30 55 -81 78 -113 52 -75 311 -336 366 -370 23 -15 44
-31 48 -36 3 -6 36 -29 73 -51 37 -22 74 -45 82 -50 50 -33 217 -121 243 -129
18 -5 54 -17 80 -25 l48 -15 -22 37 c-12 20 -28 44 -35 52 -16 21 -144 284
-144 299 0 6 -20 53 -44 104 -24 50 -56 128 -72 172 -15 44 -31 85 -34 90 -4
6 -15 37 -25 70 -9 33 -23 74 -31 90 -42 90 -95 302 -124 490 -11 77 -26 160
-31 185 -6 25 -13 83 -16 129 -5 69 -4 83 8 79 8 -3 19 -13 24 -24 17 -32 58
-88 75 -100 8 -7 29 -25 45 -41 56 -54 317 -216 430 -268 33 -15 83 -38 112
-51 114 -54 363 -125 508 -144 397 -53 894 -53 1299 1 115 15 484 105 526 128
8 4 62 23 120 40 58 18 146 52 195 75 50 24 117 53 150 66 33 13 67 28 75 35
8 6 53 31 100 54 124 62 235 125 272 155 18 15 44 35 56 44 13 9 47 38 75 63
29 26 67 54 85 63 17 9 32 21 32 25 0 5 18 22 40 38 75 56 357 336 409 407
103 142 254 392 294 486 8 19 32 73 55 120 22 47 54 114 70 150 16 36 48 103
70 150 73 154 98 240 138 460 15 87 27 120 38 109 6 -6 65 -375 79 -494 13
-118 12 -621 -2 -715 -18 -121 -81 -445 -91 -465 -15 -33 -80 -231 -80 -246 0
-8 -6 -26 -14 -40 -7 -14 -23 -68 -36 -120 -12 -52 -26 -103 -31 -114 -14 -34
-29 -172 -29 -278 0 -89 35 -337 66 -462 30 -124 150 -383 244 -523 30 -46 60
-92 65 -101 6 -9 25 -35 43 -58 17 -22 32 -44 32 -48 0 -18 154 -210 240 -300
96 -99 130 -144 130 -166 0 -29 -78 -103 -182 -173 -62 -41 -138 -93 -169
-114 -31 -22 -65 -43 -76 -46 -11 -4 -43 -27 -69 -51 -27 -25 -52 -45 -56 -45
-19 0 -48 -82 -48 -135 0 -54 27 -136 50 -150 19 -12 10 -57 -20 -101 -43 -62
-66 -84 -140 -136 -79 -55 -122 -78 -149 -78 -34 0 -33 -18 1 -36 17 -9 38
-23 46 -30 7 -8 17 -14 21 -14 5 0 25 -21 45 -47 29 -38 36 -55 36 -92 0 -27
-7 -57 -16 -71 -25 -38 -117 -130 -129 -130 -6 0 -29 -15 -50 -34 -22 -19 -53
-45 -70 -59 l-30 -25 0 -234 c0 -264 -2 -273 -71 -422 -22 -49 -112 -145 -179
-190 -143 -99 -411 -110 -718 -30 -154 40 -387 93 -462 105 -38 6 -95 15 -125
19 -97 15 -285 12 -327 -5 -21 -8 -67 -24 -103 -34 -189 -57 -267 -112 -411
-291 -24 -30 -47 -57 -50 -60 -4 -3 -24 -36 -45 -75 -21 -38 -41 -71 -45 -73
-9 -4 -45 -114 -82 -247 -57 -205 -61 -705 -8 -895 6 -19 27 -98 47 -175 20
-77 41 -147 45 -155 5 -8 24 -63 44 -121 20 -59 49 -133 66 -165 17 -33 46
-97 66 -144 19 -47 38 -87 43 -90 4 -3 23 -36 43 -75 39 -78 104 -181 167
-265 23 -30 64 -86 93 -125 28 -38 97 -117 152 -174 l101 -104 110 32 c276 82
473 148 634 213 96 39 220 88 275 110 220 88 616 295 875 459 321 203 661 457
885 659 123 111 434 421 560 557 143 154 405 483 505 633 25 37 79 119 121
181 164 248 420 714 483 881 13 35 53 129 89 210 109 244 228 598 295 878 112
461 133 588 194 1175 7 72 12 273 13 505 0 380 -9 549 -40 755 -8 50 -23 153
-35 230 -45 295 -133 697 -199 907 -16 51 -37 120 -46 153 -9 33 -23 71 -31
85 -8 14 -40 99 -73 190 -86 244 -269 644 -423 925 -101 184 -408 662 -505
786 -88 113 -153 191 -207 249 -34 36 -106 119 -161 185 -119 141 -316 341
-474 480 -63 55 -145 127 -181 161 -69 62 -316 250 -545 414 -136 98 -565 360
-655 401 -29 13 -131 63 -227 112 -96 48 -179 87 -184 87 -6 0 -75 29 -154 65
-79 36 -150 65 -158 65 -8 0 -46 13 -83 29 -38 16 -112 43 -164 59 -213 69
-317 101 -350 107 -19 4 -78 20 -130 35 -130 39 -204 58 -302 75 -497 89 -574
99 -913 122 -257 17 -690 23 -875 11z m268 -2474 c56 -28 91 -63 125 -128 17
-32 22 -58 22 -116 0 -124 -53 -207 -164 -258 -45 -21 -64 -24 -121 -20 -243
18 -342 317 -159 482 56 51 92 64 180 65 51 1 76 -4 117 -25z"/>
<path d="M2870 13389 c-105 -12 -303 -63 -407 -105 -476 -191 -838 -586 -982
-1071 -168 -567 -20 -1177 390 -1607 233 -244 523 -407 846 -475 128 -28 273
-42 296 -30 9 6 72 54 140 108 181 146 365 340 609 646 512 642 543 675 906
1011 l44 40 -15 100 c-41 258 -147 505 -315 734 -77 104 -249 272 -362 353
-162 114 -412 227 -595 267 -165 37 -388 48 -555 29z"/>
<path d="M6570 12369 c-315 -49 -630 -145 -930 -284 -121 -56 -322 -165 -387
-208 -17 -12 -64 -43 -105 -69 -209 -132 -671 -601 -1103 -1118 -375 -450
-631 -661 -1155 -955 -91 -51 -217 -123 -280 -159 -138 -79 -243 -126 -630
-285 -496 -202 -855 -333 -951 -346 -41 -6 -37 -3 61 50 58 31 188 99 290 150
360 180 737 384 915 492 329 200 449 275 473 294 l24 18 -24 5 c-406 77 -703
232 -984 511 -111 111 -157 165 -220 261 -43 66 -83 128 -89 138 -8 15 -22 1
-90 -90 -44 -60 -111 -160 -149 -224 -37 -63 -101 -164 -141 -225 -199 -302
-358 -607 -439 -841 -24 -71 -71 -201 -104 -289 -164 -442 -271 -833 -327
-1200 -14 -93 -30 -186 -35 -205 -6 -19 -20 -129 -32 -245 -21 -187 -23 -260
-23 -675 0 -595 20 -862 91 -1225 43 -218 51 -255 83 -385 29 -116 42 -165
105 -382 32 -115 156 -458 195 -543 18 -38 42 -95 53 -125 26 -67 244 -512
328 -669 33 -62 109 -187 168 -276 59 -90 119 -182 134 -206 86 -138 310 -427
459 -594 285 -319 591 -620 749 -738 30 -23 87 -67 125 -99 99 -80 204 -158
318 -233 l99 -66 86 52 c79 47 250 164 262 179 3 4 28 24 55 44 160 120 485
431 521 499 8 15 18 27 23 27 5 0 21 19 37 43 15 23 38 53 50 67 12 14 46 61
75 105 30 44 62 88 71 99 9 10 24 34 33 52 8 18 26 46 39 61 27 33 156 265
156 282 0 6 4 11 9 11 5 0 12 12 16 27 3 16 19 55 35 88 15 33 41 94 56 135
14 41 38 101 51 134 22 53 66 223 114 436 31 144 42 308 36 586 -4 196 -10
281 -24 348 l-18 90 -112 36 c-62 20 -122 41 -135 48 -13 6 -67 27 -121 47
-54 19 -110 41 -125 49 -15 9 -56 27 -92 42 -36 14 -83 36 -105 49 -22 13
-111 59 -198 104 -168 86 -329 180 -412 239 -105 76 -333 263 -406 333 -240
235 -443 516 -536 745 -19 49 -39 94 -43 99 -16 20 -111 426 -125 532 -32 235
-29 575 6 743 8 38 59 232 63 237 0 1 1 -116 2 -260 1 -308 16 -479 54 -633
30 -120 79 -269 115 -349 12 -27 33 -77 45 -110 31 -79 134 -276 179 -344 20
-30 41 -63 48 -75 6 -11 22 -31 36 -45 13 -15 40 -52 61 -83 21 -32 41 -58 45
-58 4 0 17 -17 29 -38 46 -80 374 -391 484 -459 26 -15 78 -49 117 -76 39 -26
75 -47 80 -47 5 0 16 -6 24 -14 53 -54 501 -239 612 -253 57 -7 40 6 -100 76
-66 33 -156 85 -200 115 -44 30 -105 69 -135 87 -111 64 -275 187 -360 269
-14 14 -46 43 -70 65 -133 120 -358 398 -454 560 -84 142 -213 408 -262 540
-51 134 -99 348 -113 505 -21 222 -9 501 13 306 4 -33 10 -64 15 -70 5 -6 23
-60 40 -121 29 -98 51 -154 123 -315 43 -96 141 -286 156 -303 9 -10 34 -48
56 -86 63 -106 134 -209 156 -228 11 -10 20 -21 20 -26 0 -5 26 -43 57 -85 31
-42 75 -102 97 -132 22 -30 96 -111 164 -180 68 -69 129 -132 136 -140 22 -29
166 -152 296 -254 145 -113 359 -239 511 -300 35 -15 72 -31 82 -37 61 -34
338 -117 487 -145 174 -33 567 -28 735 10 193 44 382 102 442 135 10 6 49 24
86 40 48 22 66 34 61 43 -4 7 -38 56 -76 109 -37 53 -68 99 -68 103 0 3 -16
29 -36 56 -42 59 -104 168 -168 295 -24 50 -51 97 -58 106 -11 14 -53 17 -283
22 -160 4 -299 12 -340 20 -112 22 -381 95 -427 116 -24 10 -54 22 -68 26 -14
4 -29 11 -35 15 -5 4 -33 15 -61 23 -28 8 -90 34 -137 56 -47 23 -90 41 -94
41 -14 0 -225 128 -252 153 -15 13 -37 30 -51 39 -68 42 -289 227 -344 287
-17 19 -39 43 -48 53 -31 31 -172 223 -206 279 -74 122 -156 279 -188 358 -19
46 -38 89 -43 95 -8 11 -34 93 -94 301 -45 156 -55 198 -77 330 -10 61 -25
144 -34 185 -18 85 -20 110 -7 110 9 0 16 -19 31 -80 62 -260 165 -491 330
-738 41 -62 89 -137 107 -165 37 -60 60 -93 146 -201 34 -44 84 -109 111 -144
99 -130 185 -212 355 -339 31 -23 74 -56 96 -73 63 -48 108 -73 405 -224 41
-21 91 -46 111 -57 57 -29 191 -80 196 -75 3 2 -13 14 -35 25 -23 11 -44 25
-47 31 -4 6 -24 22 -46 36 -108 68 -260 224 -369 379 -184 263 -247 373 -307
540 -14 39 -29 75 -33 80 -10 13 -63 175 -96 295 -66 236 -106 669 -86 918 18
209 75 451 147 626 20 48 50 127 66 174 17 48 47 116 66 151 59 105 115 222
110 227 -9 10 -37 -10 -63 -44 -23 -30 -125 -152 -144 -172 -3 -3 -50 -52
-105 -109 -114 -119 -255 -249 -400 -370 -98 -82 -339 -247 -423 -290 -24 -12
-68 -38 -98 -57 -70 -45 -387 -204 -484 -242 -41 -17 -106 -44 -145 -62 -183
-83 -508 -205 -680 -255 -169 -49 -520 -125 -576 -125 -54 0 -29 19 59 45 238
71 296 91 426 147 145 62 549 261 617 304 21 13 41 24 44 24 4 0 167 94 315
182 59 35 203 129 245 159 22 16 65 46 95 67 30 20 80 57 111 82 32 25 95 74
141 110 214 167 416 378 624 652 59 79 111 145 114 148 3 3 28 33 54 68 26 35
57 71 67 81 11 10 30 33 43 50 30 40 183 206 301 327 50 51 127 130 171 175
45 46 131 129 190 184 59 55 129 120 155 145 60 57 78 73 169 148 41 34 80 67
85 72 22 23 285 224 360 275 227 155 427 286 465 305 24 12 56 30 70 40 61 41
192 117 280 163 126 65 161 87 154 98 -6 10 -7 10 -84 -2z"/>
<path d="M8616 7508 c4 -7 36 -53 72 -103 93 -131 125 -164 367 -375 33 -28
74 -59 90 -67 17 -9 44 -26 60 -39 34 -26 184 -97 261 -124 29 -10 96 -25 150
-34 55 -9 137 -24 184 -33 87 -17 361 -25 376 -11 4 4 -24 39 -62 78 -116 119
-164 202 -196 338 -11 48 -24 98 -29 112 l-9 25 -183 1 c-243 1 -494 38 -663
98 -38 13 -105 34 -149 46 -44 12 -91 28 -105 35 -27 14 -157 65 -166 65 -3 0
-2 -6 2 -12z"/>
<path d="M6619 6136 c-52 -18 -95 -51 -139 -107 -52 -66 -64 -107 -57 -192 5
-58 12 -78 39 -116 18 -25 45 -57 60 -69 l28 -24 0 -1164 c0 -769 -3 -1164
-10 -1164 -5 0 -10 5 -10 10 0 6 -29 54 -64 108 -35 53 -71 112 -80 130 -9 17
-20 32 -25 32 -4 0 -27 28 -50 63 -71 106 -115 164 -167 221 -27 29 -76 84
-109 122 -33 37 -87 94 -120 125 -92 87 -333 279 -395 314 -30 17 -64 36 -75
43 -30 17 -244 118 -289 136 -82 34 -82 34 -65 -129 13 -130 12 -555 -1 -715
-10 -120 -38 -266 -95 -505 -32 -134 -131 -439 -155 -480 -10 -16 -37 -74 -60
-128 -23 -53 -50 -107 -59 -120 -10 -12 -33 -56 -51 -97 -19 -41 -39 -82 -46
-90 -6 -8 -31 -53 -55 -100 -24 -47 -49 -91 -56 -98 -8 -8 -21 -28 -30 -45 -9
-18 -24 -43 -33 -57 -9 -14 -41 -61 -70 -105 -29 -44 -60 -87 -69 -95 -9 -9
-31 -36 -50 -60 -19 -25 -47 -58 -62 -75 -15 -16 -70 -77 -122 -135 -164 -183
-310 -315 -545 -497 -19 -14 -30 -29 -25 -34 16 -16 399 -222 458 -246 33 -14
114 -49 180 -78 418 -184 653 -263 1130 -380 121 -29 457 -90 615 -110 509
-66 1183 -79 1555 -30 17 2 122 13 235 25 113 11 232 28 265 36 33 9 70 19 83
21 28 7 28 13 -5 51 -55 61 -277 350 -338 437 -22 32 -54 77 -72 101 -18 24
-42 62 -54 86 -12 24 -43 72 -68 108 -54 75 -88 137 -244 460 -201 412 -216
449 -342 825 -60 181 -67 201 -76 217 -5 11 -9 634 -9 1526 l0 1508 36 35 c19
18 48 57 65 85 82 143 -8 363 -170 419 -54 18 -84 18 -132 1z"/>
</g>
</svg>
