<?xml version="1.0" standalone="no"?>
<!DOCTYPE svg PUBLIC "-//W3C//DTD SVG 20010904//EN"
 "http://www.w3.org/TR/2001/REC-SVG-20010904/DTD/svg10.dtd">
<svg version="1.0" xmlns="http://www.w3.org/2000/svg"
 width="700.000000pt" height="700.000000pt" viewBox="0 0 700.000000 700.000000"
 preserveAspectRatio="xMidYMid meet">
<metadata>
Created by potrace 1.14, written by Peter Selinger 2001-2017
</metadata>
<g transform="translate(0.000000,700.000000) scale(0.100000,-0.100000)"
fill="#000000" stroke="none">
<path d="M4850 5522 c-39 -14 -195 -166 -1135 -1104 l-1090 -1088 -200 201
c-132 132 -216 209 -248 225 -242 125 -509 -129 -395 -376 20 -44 66 -96 228
-259 l203 -203 -231 -231 -232 -232 -647 646 c-432 430 -661 652 -688 665 -60
28 -195 27 -251 -3 -104 -56 -164 -157 -160 -273 3 -122 -23 -92 816 -931 857
-856 803 -810 940 -805 118 4 128 12 489 373 181 181 340 339 354 352 l26 23
354 -354 c388 -388 395 -393 512 -396 60 -2 102 9 160 40 17 9 766 754 1666
1655 1125 1126 1642 1650 1655 1678 29 61 27 195 -5 254 -28 53 -81 105 -136
134 -58 30 -182 30 -248 0 -38 -18 -347 -321 -1563 -1537 -833 -834 -1518
-1516 -1522 -1516 -4 0 -110 103 -235 228 l-229 229 1081 1081 c1182 1181
1122 1115 1127 1242 8 208 -195 353 -396 282z"/>
</g>
</svg>
