<?xml version="1.0" standalone="no"?>
<!DOCTYPE svg PUBLIC "-//W3C//DTD SVG 20010904//EN"
 "http://www.w3.org/TR/2001/REC-SVG-20010904/DTD/svg10.dtd">
<svg version="1.0" xmlns="http://www.w3.org/2000/svg"
 width="700.000000pt" height="700.000000pt" viewBox="0 0 700.000000 700.000000"
 preserveAspectRatio="xMidYMid meet">
<metadata>
Created by potrace 1.14, written by Peter Selinger 2001-2017
</metadata>
<g transform="translate(0.000000,700.000000) scale(0.100000,-0.100000)"
fill="#000000" stroke="none">
<path d="M3298 6925 c-2 -1 -46 -5 -98 -9 -169 -12 -338 -39 -512 -82 -179
-44 -488 -140 -488 -153 0 -4 16 -23 36 -42 48 -46 114 -140 154 -219 35 -68
80 -193 80 -219 1 -43 16 -43 86 0 104 64 327 173 434 212 180 66 268 80 510
81 237 1 327 -5 446 -30 43 -9 86 -17 94 -19 103 -20 361 -113 506 -181 91
-42 236 -127 379 -222 106 -70 157 -113 275 -231 235 -236 332 -362 439 -570
60 -117 74 -153 106 -276 46 -174 48 -297 9 -485 -33 -155 -87 -251 -214 -381
-50 -51 -142 -119 -162 -119 -4 0 17 39 46 88 145 238 176 341 176 587 0 193
-16 284 -76 415 -37 79 -113 200 -128 200 -6 0 -20 -14 -30 -31 -65 -111 -351
-423 -546 -597 -181 -162 -462 -327 -760 -447 -63 -26 -122 -48 -130 -50 -8
-2 -48 -14 -88 -25 -41 -12 -76 -20 -78 -17 -2 2 19 39 48 81 l53 78 130 44
c212 71 452 197 623 326 138 104 229 189 356 332 33 38 68 77 76 85 15 16 137
182 155 212 23 37 85 159 85 167 0 9 -119 132 -174 180 l-39 34 -26 -33 c-126
-161 -372 -413 -532 -544 -45 -37 -164 -122 -222 -159 -129 -81 -408 -208
-423 -193 -3 3 3 22 14 44 11 21 24 54 31 73 10 31 22 41 99 79 125 61 243
134 347 212 183 137 595 576 595 633 0 13 -41 56 -53 56 -4 0 -38 23 -77 50
-39 28 -73 50 -77 50 -3 0 -15 7 -25 16 -17 16 -21 14 -65 -37 -74 -84 -263
-270 -318 -314 -27 -22 -52 -43 -55 -46 -13 -15 -165 -112 -217 -138 -78 -39
-169 -77 -218 -89 -57 -15 -125 -22 -125 -12 0 5 33 26 73 47 96 53 386 251
467 321 83 71 251 244 290 299 l30 41 -36 21 c-19 12 -37 21 -40 21 -3 0 -40
16 -82 36 -132 62 -270 108 -387 129 -64 11 -282 5 -359 -10 -44 -8 -91 -17
-105 -20 -101 -19 -157 -38 -259 -89 -250 -126 -541 -365 -713 -586 -155 -200
-318 -532 -354 -722 -3 -13 -7 -34 -10 -48 -2 -14 -7 -38 -10 -55 -7 -39 -6
-290 1 -335 37 -239 34 -226 84 -385 66 -208 161 -366 305 -510 49 -50 99 -97
110 -105 74 -55 198 -122 248 -134 l27 -6 -29 52 c-69 122 -184 414 -215 548
-19 79 -35 174 -42 255 l-6 60 41 -46 c47 -54 170 -136 285 -190 172 -80 350
-108 656 -104 113 2 225 6 250 10 61 9 232 45 240 50 3 2 17 6 31 9 89 17 406
158 494 219 182 128 368 316 452 458 89 150 207 417 228 514 22 106 26 118 33
110 3 -3 7 -16 9 -28 2 -12 10 -69 19 -126 33 -220 12 -565 -46 -726 -63 -173
-88 -285 -84 -375 3 -81 25 -224 40 -265 53 -144 186 -358 304 -488 38 -43 70
-83 70 -90 0 -21 -57 -69 -173 -147 -59 -40 -113 -82 -119 -94 -15 -28 -12
-84 7 -112 18 -28 9 -57 -31 -98 -37 -37 -99 -76 -120 -76 -11 0 -1 -15 30
-43 71 -67 59 -109 -54 -192 l-50 -37 0 -119 c0 -155 -15 -204 -84 -275 -66
-68 -132 -89 -250 -81 -89 6 -85 6 -241 43 -280 67 -398 62 -540 -20 -85 -50
-180 -187 -216 -311 -21 -71 -23 -102 -24 -265 0 -174 2 -191 28 -280 90 -304
197 -502 375 -698 l48 -54 60 16 c33 9 80 23 105 32 24 8 51 17 59 19 31 7
129 44 251 94 401 163 760 403 1075 716 192 192 212 214 320 351 237 303 439
689 558 1069 24 77 60 213 70 265 2 14 10 48 16 75 13 54 26 139 35 220 4 28
8 64 10 80 25 174 25 626 0 765 -2 14 -11 70 -20 125 -8 55 -25 143 -36 195
-11 52 -23 106 -25 120 -5 22 -28 106 -55 198 -39 129 -178 451 -262 606 -93
172 -263 427 -351 528 -16 18 -59 67 -95 108 -364 416 -860 756 -1381 946
-156 57 -434 135 -535 149 -38 5 -57 9 -115 20 -14 3 -48 8 -76 10 -28 3 -60
7 -71 9 -55 11 -555 29 -565 21z m123 -1278 c42 -29 59 -60 59 -115 0 -56 -25
-99 -72 -123 -45 -23 -77 -24 -121 -3 -96 46 -105 189 -14 244 44 27 105 26
148 -3z"/>
<path d="M1410 6829 c-119 -26 -116 -25 -197 -63 -99 -47 -155 -87 -239 -171
-175 -173 -258 -383 -248 -630 8 -212 91 -403 243 -556 139 -139 319 -228 499
-244 l68 -7 75 60 c109 87 178 163 402 442 77 96 198 231 267 300 144 144 138
125 94 279 -34 118 -95 227 -179 322 -35 40 -137 127 -180 155 -43 27 -186 90
-226 100 -19 4 -38 9 -44 10 -97 23 -235 24 -335 3z"/>
<path d="M3340 6317 c-261 -51 -477 -135 -675 -261 -133 -85 -329 -279 -600
-596 -203 -236 -310 -324 -590 -486 -178 -104 -261 -144 -460 -224 -99 -40
-193 -78 -210 -85 -52 -23 -239 -86 -265 -91 -37 -6 -18 5 155 93 233 118 403
211 572 314 171 104 168 100 86 119 -176 42 -319 125 -451 260 -42 43 -93 103
-112 134 -19 31 -38 56 -42 56 -23 0 -289 -426 -353 -565 -51 -111 -48 -104
-104 -260 -108 -307 -140 -423 -180 -665 -6 -36 -13 -78 -16 -95 -16 -93 -20
-181 -20 -470 0 -401 1 -408 70 -755 22 -109 102 -365 158 -505 105 -264 313
-628 480 -840 165 -209 417 -458 612 -603 83 -62 153 -112 157 -112 17 0 210
138 283 203 159 141 220 212 347 406 80 120 168 316 203 451 18 68 18 69 36
165 14 70 15 392 2 449 -10 45 -7 43 -128 86 -226 80 -474 214 -639 347 -266
212 -417 455 -462 740 -3 21 -9 58 -14 82 -9 48 -6 298 5 348 27 133 31 125
38 -67 4 -135 11 -207 26 -265 85 -339 317 -663 601 -838 118 -72 350 -169
350 -146 0 4 -24 20 -52 34 -69 35 -268 165 -315 207 -141 124 -248 255 -325
394 -123 224 -167 371 -173 586 -2 81 4 110 12 55 12 -83 101 -291 181 -422
284 -469 658 -751 1080 -814 73 -11 267 -5 338 9 72 15 216 62 266 87 l38 19
-61 89 c-33 50 -80 129 -105 178 l-46 87 -52 1 c-268 3 -383 27 -613 125 -207
88 -388 234 -506 406 -92 134 -190 372 -222 538 -13 67 -25 139 -30 175 l-4
40 13 -40 c8 -22 22 -65 31 -95 27 -89 78 -190 155 -310 40 -62 78 -120 86
-129 7 -9 34 -43 59 -76 108 -142 230 -240 420 -340 91 -48 201 -96 184 -82
-2 3 -31 26 -64 53 -93 74 -156 148 -240 285 -75 121 -152 321 -170 437 -3 21
-7 48 -10 60 -8 42 -19 187 -19 247 1 187 53 384 159 598 24 48 40 87 35 87
-5 0 -26 -21 -47 -46 -42 -52 -224 -236 -269 -273 -76 -61 -182 -137 -251
-177 -210 -125 -519 -257 -778 -333 -64 -19 -235 -53 -247 -48 -7 2 30 18 82
35 137 44 183 63 348 145 234 117 443 246 607 375 111 88 221 204 371 392 157
198 444 493 635 655 47 40 185 142 279 207 101 69 384 238 400 238 12 0 22 18
13 22 -5 3 -28 0 -53 -5z"/>
<path d="M4431 3795 c46 -64 149 -168 220 -220 67 -50 172 -102 220 -110 33
-5 54 -9 109 -20 14 -3 70 -8 125 -12 113 -7 110 -13 37 71 -33 37 -68 103
-75 142 -14 71 -14 71 -80 71 -89 0 -223 12 -276 24 -42 10 -247 76 -295 95
-16 6 -12 -3 15 -41z"/>
<path d="M3365 3128 c-30 -17 -65 -57 -76 -87 -16 -40 -2 -103 29 -136 l27
-30 0 -587 c0 -324 -3 -588 -6 -588 -4 0 -25 29 -48 65 -22 36 -45 71 -51 78
-6 6 -32 41 -59 77 -70 94 -193 217 -291 290 -86 64 -263 155 -285 146 -8 -3
-10 -18 -6 -48 8 -56 6 -334 -3 -421 -9 -85 -56 -278 -94 -388 -58 -167 -209
-443 -314 -576 -77 -97 -252 -273 -336 -338 -72 -56 -73 -52 28 -104 30 -16
71 -37 90 -48 40 -22 296 -131 380 -162 117 -42 370 -108 500 -130 36 -6 76
-13 90 -16 14 -3 48 -7 75 -10 28 -3 64 -8 80 -10 169 -22 698 -22 768 0 7 2
39 6 72 9 92 9 175 24 175 32 0 6 -51 75 -61 84 -17 16 -163 216 -203 280 -49
78 -168 311 -225 440 -18 41 -56 140 -84 220 l-50 145 -1 769 -2 770 22 25
c33 40 44 67 44 106 0 102 -109 186 -185 143z"/>
</g>
</svg>
