<?xml version="1.0" standalone="no"?>
<!DOCTYPE svg PUBLIC "-//W3C//DTD SVG 20010904//EN"
 "http://www.w3.org/TR/2001/REC-SVG-20010904/DTD/svg10.dtd">
<svg version="1.0" xmlns="http://www.w3.org/2000/svg"
 width="700.000000pt" height="700.000000pt" viewBox="0 0 700.000000 700.000000"
 preserveAspectRatio="xMidYMid meet">
<metadata>
Created by potrace 1.14, written by Peter Selinger 2001-2017
</metadata>
<g transform="translate(0.000000,700.000000) scale(0.100000,-0.100000)"
fill="#000000" stroke="none">
<path d="M4840 5519 c-35 -15 -283 -258 -1127 -1102 l-1082 -1081 -204 201
c-234 233 -264 253 -383 253 -118 0 -210 -57 -270 -170 -29 -54 -26 -190 5
-250 14 -27 104 -127 227 -250 l204 -205 -230 -230 -230 -230 -648 647 c-497
497 -657 652 -692 667 -56 25 -157 28 -223 5 -60 -20 -126 -79 -157 -140 -35
-69 -36 -198 -1 -265 32 -63 1538 -1567 1596 -1595 61 -29 195 -27 256 5 32
16 157 134 395 372 l349 349 360 -359 c335 -334 364 -360 414 -376 78 -25 159
-22 229 10 51 23 229 198 1689 1658 1817 1817 1683 1672 1683 1818 0 92 -29
159 -96 218 -78 69 -193 90 -300 55 -45 -15 -169 -136 -1574 -1540 l-1525
-1524 -230 230 -230 230 1086 1087 c997 998 1088 1092 1103 1137 21 64 20 149
-1 212 -22 66 -101 145 -167 167 -69 23 -169 22 -226 -4z"/>
</g>
</svg>
